<?xml version="1.0" encoding="UTF-8" standalone="no"?>
<svg
   width="64"
   height="64"
   version="1.1"
   id="svg16"
   sodipodi:docname="gtk4-theme-selector.svg"
   inkscape:version="1.2.2 (b0a8486541, 2022-12-01)"
   xmlns:inkscape="http://www.inkscape.org/namespaces/inkscape"
   xmlns:sodipodi="http://sodipodi.sourceforge.net/DTD/sodipodi-0.dtd"
   xmlns="http://www.w3.org/2000/svg"
   xmlns:svg="http://www.w3.org/2000/svg">
  <sodipodi:namedview
     id="namedview14"
     pagecolor="#ffffff"
     bordercolor="#999999"
     borderopacity="1"
     inkscape:showpageshadow="0"
     inkscape:pageopacity="0"
     inkscape:pagecheckerboard="0"
     inkscape:deskcolor="#d1d1d1"
     showgrid="false"
     inkscape:zoom="8.75"
     inkscape:cx="32.171429"
     inkscape:cy="32.171429"
     inkscape:window-width="1329"
     inkscape:window-height="733"
     inkscape:window-x="37"
     inkscape:window-y="0"
     inkscape:window-maximized="1"
     inkscape:current-layer="svg16" />
  <defs
     id="defs20" />
  <path
     style="display:inline;fill:#ff9700;fill-opacity:1"
     d="M 32.155597,4.0017289 A 6.5946984,6.3671019 0 0 0 28.70165,4.8511158 L 9.2973497,15.667749 a 6.5946984,6.3671019 0 0 0 -3.2973492,5.513915 v 21.633667 a 6.5946984,6.3671019 0 0 0 3.2973492,5.513915 L 28.70225,59.14608 a 6.5946984,6.3671019 0 0 0 6.594699,0 L 54.70185,48.329246 a 6.5946984,6.3671019 0 0 0 3.297949,-5.515915 V 21.179664 A 6.5946984,6.3671019 0 0 0 54.70185,15.665749 L 35.298149,4.8491158 A 6.5946984,6.3671019 0 0 0 32.156197,3.9997289 Z"
     id="path2" />
  <path
     style="display:none;fill:#ff7b00;fill-opacity:1;fill-rule:evenodd;stroke:none;stroke-width:0;stroke-dasharray:none;paint-order:markers fill stroke"
     d="M 6.5234375,18.714844 32,32.25 57.482422,18.710938 Z"
     id="path969" />
  <path
     style="display:inline;fill:#27c5d8;fill-opacity:1"
     d="M 6.5234375,18.714844 A 6.5946984,6.3671019 0 0 0 6,21.181641 v 21.632812 a 6.5946984,6.3671019 0 0 0 3.296875,5.515625 l 19.40625,10.816406 A 6.5946984,6.3671019 0 0 0 32,59.994141 V 32.25 Z"
     id="path4" />
  <path
     style="display:none;fill:#66f5f2;fill-opacity:1"
     d="M 6.5234375,18.714844 32,59.994141 V 32.25 Z"
     id="path903" />
  <path
     style="display:inline;fill:#c94cc0;fill-opacity:1"
     d="M 57.482422,18.710938 32,32.25 v 27.744141 a 6.5946984,6.3671019 0 0 0 3.296875,-0.847657 L 54.701172,48.330078 A 6.5946984,6.3671019 0 0 0 58,42.8125 V 21.179688 a 6.5946984,6.3671019 0 0 0 -0.517578,-2.46875 z"
     id="path6" />
  <path
     style="display:none;fill:#9e44ce;fill-opacity:1"
     d="M 57.482422,18.710938 32,32.25 v 27.744141 z"
     id="path145" />
  <path
     style="display:inline;opacity:0.2;fill:#ffffff"
     d="M 32.15625,4.0019531 A 6.5947745,6.3719333 0 0 0 28.703125,4.8535156 L 9.296875,15.677734 A 6.5947745,6.3719333 0 0 0 6,21.197266 v 1.001953 A 6.5947745,6.3719333 0 0 1 9.296875,16.677734 L 28.703125,5.8535156 A 6.5947745,6.3719333 0 0 1 32.15625,5.0019531 6.5947745,6.3719333 0 0 1 35.296875,5.8535156 L 54.703125,16.677734 A 6.5947745,6.3719333 0 0 1 58,22.199219 V 21.197266 A 6.5947745,6.3719333 0 0 0 54.703125,15.677734 L 35.296875,4.8535156 A 6.5947745,6.3719333 0 0 0 32.15625,4.0019531 Z"
     id="path8" />
  <path
     style="display:inline;opacity:0.2"
     d="m 6,41.800859 a 6.5946984,6.3721235 0 0 0 0.00195,0.07422 v -0.07422 z m 0.00195,1 v 1 a 6.5946984,6.3721235 0 0 0 3.296875,5.517578 l 19.406253,10.828125 a 6.5946984,6.3721235 0 0 0 6.59375,0 L 54.703125,49.318437 A 6.5946984,6.3721235 0 0 0 58,43.800859 v -1 a 6.5946984,6.3721235 0 0 1 -3.296875,5.517578 L 35.298828,59.146562 a 6.5946984,6.3721235 0 0 1 -6.59375,0 L 9.2988281,48.318437 a 6.5946984,6.3721235 0 0 1 -3.296875,-5.517578 z"
     id="path10" />
  <path
     style="display:inline;opacity:0.2;fill:#ffffff"
     d="M 6.5234375,18.714844 A 6.5946984,6.3671019 0 0 0 6,21.181641 v 1 A 6.5946984,6.3671019 0 0 1 6.5234375,19.714844 L 32,33.25 v -1 z"
     id="path12" />
  <path
     style="display:inline;opacity:0.2;fill:#ffffff"
     d="M 57.482422,18.710938 32,32.25 v 1 L 57.482422,19.710938 A 6.5946984,6.3671019 0 0 1 58,22.179688 v -1 a 6.5946984,6.3671019 0 0 0 -0.517578,-2.46875 z"
     id="path14" />
</svg>
